<svg xmlns="http://www.w3.org/2000/svg" width="29.835" height="29.837" viewBox="0 0 29.835 29.837">
  <g id="פייסבוק" transform="translate(-1718.483 -20)">
    <g id="Group_13" data-name="Group 13">
      <g id="Group_12" data-name="Group 12">
        <g id="Group_11" data-name="Group 11">
          <g id="Path_23" data-name="Path 23">
            <path id="Path_2602" data-name="Path 2602" d="M1733.345,20a14.918,14.918,0,1,0,14.973,14.863h0A14.935,14.935,0,0,0,1733.345,20Z" fill="none"/>
            <path id="Path_2603" data-name="Path 2603" d="M1733.406,22.819h-.05a12.1,12.1,0,0,0,.048,24.2h.048a12.1,12.1,0,1,0-.046-24.2m0-2.819a14.919,14.919,0,0,1,.058,29.837h-.06a14.919,14.919,0,0,1-.06-29.837Z" fill="#fff"/>
          </g>
        </g>
      </g>
    </g>
    <path id="Path_24" data-name="Path 24" d="M1736.691,34.924h-2.151V42.59h-3.187V34.924h-1.515V32.215h1.515V30.462a2.989,2.989,0,0,1,2.742-3.216h0a3.125,3.125,0,0,1,.474,0l2.362.009v2.631h-1.714a.65.65,0,0,0-.682.615.562.562,0,0,0,.006.123v1.592h2.429Z" fill="#fff"/>
  </g>
</svg>
