<svg xmlns="http://www.w3.org/2000/svg" width="29.836" height="29.836" viewBox="0 0 29.836 29.836">
  <g id="נגישות" transform="translate(-1669.49 -20)">
    <g id="Group_17" data-name="Group 17">
      <g id="Group_16" data-name="Group 16">
        <g id="Group_15" data-name="Group 15">
          <path id="Path_25" data-name="Path 25" d="M1684.408,20a14.918,14.918,0,1,0,14.918,14.918h0A14.935,14.935,0,0,0,1684.408,20Z" fill="#fff"/>
        </g>
      </g>
    </g>
    <g id="Group_19" data-name="Group 19">
      <path id="Path_26" data-name="Path 26" d="M1684.115,26.789a1.8,1.8,0,1,1-1.8-1.8,1.8,1.8,0,0,1,1.8,1.8Z"/>
      <g id="Group_18" data-name="Group 18">
        <path id="Path_27" data-name="Path 27" d="M1683.514,42.218a4.686,4.686,0,0,1-2.592-8.591l-.307-1.485a6.119,6.119,0,1,0,8.168,8.5l-.837-1.588A4.7,4.7,0,0,1,1683.514,42.218Z"/>
        <path id="Path_28" data-name="Path 28" d="M1693.773,40.468a.917.917,0,0,0-1.159-.584h-.007l-.834.278-2.125-4.036a.93.93,0,0,0-.815-.492h-4.566L1683.8,33.4h2.79a.819.819,0,0,0,0-1.638h-3.127l-.072-.345-.327-1.575a.921.921,0,0,0-1.823.263,1.064,1.064,0,0,0,.023.111l.314,1.515.293,1.416.744,3.6a.922.922,0,0,0,.9.734h4.76l1.046,1.987,1.186,2.25a.919.919,0,0,0,1.1.444l1.577-.525a.919.919,0,0,0,.586-1.161Z"/>
      </g>
    </g>
  </g>
</svg>
