<svg xmlns="http://www.w3.org/2000/svg" width="115" height="116" viewBox="0 0 115 116">
  <g id="Сгруппировать_329" data-name="Сгруппировать 329" transform="translate(0.311 0.605)" opacity="0.9">
    <path id="Вычитание_6" data-name="Вычитание 6" d="M4045.189-3253.605a56.716,56.716,0,0,1-22.382-4.558,57.281,57.281,0,0,1-18.277-12.43,57.836,57.836,0,0,1-12.323-18.436,58.073,58.073,0,0,1-4.519-22.577,58.069,58.069,0,0,1,4.519-22.576,57.837,57.837,0,0,1,12.323-18.436,57.281,57.281,0,0,1,18.277-12.43,56.716,56.716,0,0,1,22.382-4.558,56.717,56.717,0,0,1,22.382,4.558,57.281,57.281,0,0,1,18.277,12.43,57.837,57.837,0,0,1,12.323,18.436,58.069,58.069,0,0,1,4.519,22.576,58.072,58.072,0,0,1-4.519,22.577,57.836,57.836,0,0,1-12.323,18.436,57.281,57.281,0,0,1-18.277,12.43A56.717,56.717,0,0,1,4045.189-3253.605Zm-10.053-72.8h0v28.029l28.029-14.014-28.029-14.014Z" transform="translate(-3988 3369)" fill="#fff"/>
  </g>
</svg>
